<svg xmlns="http://www.w3.org/2000/svg" viewBox="39.7 63.7 128.9 160.8"><path d="m 111.727,219.04472 c -1.01864,-0.21778 -3.13041,-0.80883 -4.69281,-1.31345 l -2.84073,-0.91749 -2.73836,0.91631 c -4.208185,1.40815 -5.413505,1.56985 -10.689045,1.43407 -4.57917,-0.11786 -4.78064,-0.1471 -7.61405,-1.10472 -10.960423,-3.70435 -20.645965,-13.44173 -28.032694,-28.18273 -6.298135,-12.5686 -9.777108,-25.6463 -10.353619,-38.91997 -0.696891,-16.04533 5.741096,-29.74211 17.609943,-37.46505 7.411114,-4.82233 18.1265,-6.70981 27.39096,-4.82481 2.06517,0.42019 6.69805,1.79129 8.52791,2.52383 0.91244,0.36528 1.816845,0.60356 2.009795,0.52952 0.19295,-0.074 0.56796,-0.71182 0.83335,-1.41729 1.64686,-4.37777 6.4044,-15.019863 9.11421,-20.387498 5.18169,-10.263978 7.67902,-14.098311 9.39613,-14.426558 1.23409,-0.235911 2.71105,0.270414 7.88524,2.70318 6.3027,2.963357 6.33979,2.987372 6.23588,4.037241 -0.0867,0.876354 -0.50331,1.27734 -7.49223,7.211805 -5.74598,4.879047 -11.72377,12.11645 -17.46084,21.14013 -1.12917,1.77604 -1.34243,1.75267 2.64638,0.28998 3.41137,-1.25095 6.91838,-2.13814 10.57422,-2.67502 3.88016,-0.56983 10.90555,-0.38049 14.16432,0.38173 10.61904,2.48376 18.39018,8.83146 23.16259,18.91992 1.46034,3.08702 2.59228,6.57112 3.49543,10.75889 0.68014,3.15371 0.71337,3.65745 0.71559,10.84791 0.002,7.97168 -0.1646,9.72943 -1.58409,16.66875 -2.15703,10.54493 -5.69413,20.37091 -10.2469,28.46568 -8.04864,14.31037 -17.88605,22.71695 -29.06502,24.83756 -2.73556,0.51893 -8.45295,0.50226 -10.95156,-0.0319 z M 94.699335,101.3197 C 85.729495,99.815897 78.476705,94.727737 74.750161,87.324443 72.730572,83.312252 71.839342,79.821177 71.505797,74.615825 71.35009,72.1858 71.385203,71.886607 71.952745,70.807562 c 0.853958,-1.623605 1.928971,-2.136244 4.479748,-2.136244 1.110992,0 3.077382,0.182489 4.369752,0.405531 9.86051,1.701763 17.15866,6.948377 20.852975,14.991146 2.3675,5.154181 3.58334,13.603102 2.268,15.760432 -0.91984,1.508663 -1.92261,1.917403 -4.631625,1.887893 -1.30969,-0.0143 -3.37621,-0.19274 -4.59226,-0.39662 z" fill="#000"/></svg>