<svg xmlns="http://www.w3.org/2000/svg" viewBox="38 83.5 138.5 135.5"><path d="m 55.36094,213.75885 c -1.21059,-0.31388 -2.47453,-1.49061 -2.76676,-2.57587 -0.27501,-1.02132 -0.12416,-2.19311 0.39219,-3.04647 0.3849,-0.6361 0.86325,-1.01817 3.49946,-2.79505 1.6795,-1.13203 3.52371,-2.34578 4.09825,-2.69721 7.10072,-4.34338 10.03502,-5.98934 16.11712,-9.04072 2.54442,-1.27652 5.02914,-2.50013 5.52161,-2.71913 0.49247,-0.21899 1.63409,-0.73109 2.53695,-1.13799 2.26775,-1.02203 5.10846,-2.22648 7.7601,-3.29025 2.34292,-0.93993 8.66094,-3.30676 8.82706,-3.30676 0.37056,0 1.84963,-0.68096 1.91305,-0.88076 0.14884,-0.46899 1.55192,-1.79049 2.34392,-2.20766 0.7208,-0.37967 0.93669,-0.41855 2.32426,-0.41855 1.43123,0 1.52946,-0.0192 1.52649,-0.29846 -0.006,-0.57557 -1.088,-3.2268 -2.20289,-5.39836 -0.47049,-0.91643 -0.47768,-0.92231 -1.3347,-1.09257 -2.21969,-0.44098 -6.26438,-1.68366 -8.7853,-2.69917 -2.24439,-0.90412 -3.11376,-1.0956 -4.45723,-0.98176 -3.21699,0.2726 -7.2657,1.97837 -15.451,6.5097 -1.51844,0.8406 -3.49936,1.93622 -4.40204,2.43472 -4.21468,2.32751 -8.07734,4.02466 -10.63901,4.67448 -1.27693,0.32392 -2.5684,0.46895 -2.5684,0.28842 0,-0.0385 0.30494,-0.54134 0.67763,-1.11747 0.6571,-1.01576 1.38948,-2.4837 2.23686,-4.4834 0.45303,-1.06911 3.06278,-8.84651 2.99218,-8.91711 -0.0243,-0.0243 -0.70849,0.0652 -1.52041,0.19885 -1.0797,0.17775 -1.97729,0.22027 -3.34163,0.15829 -3.05371,-0.13874 -5.77377,-0.92531 -10.5209,-3.04236 -3.39502,-1.51407 -4.51611,-1.98609 -5.89468,-2.4819 -0.78329,-0.28172 -1.31754,-0.54559 -1.19386,-0.58967 0.12311,-0.0439 1.66767,-0.38498 3.43235,-0.758 2.98448,-0.63086 6.91226,-1.67221 8.70845,-2.30883 2.66249,-0.94366 8.44571,-3.63013 11.19079,-5.19845 4.44637,-2.54029 8.36236,-5.90699 10.50093,-9.02798 0.31107,-0.45397 1.53929,-2.22755 2.72937,-3.94128 1.19009,-1.71373 2.66749,-3.85977 3.28312,-4.76897 5.15374,-7.61137 8.49882,-12.07743 10.41156,-13.90057 0.54023,-0.51493 2.55715,-2.32633 3.61359,-3.24539 1.97344,-1.7168 6.02007,-5.7654 7.46225,-7.46588 0.55688,-0.65663 1.42884,-1.83183 1.93769,-2.61157 1.0444,-1.60041 3.09539,-5.6979 3.58552,-7.16316 1.41607,-4.233422 4.85947,-8.528402 8.53014,-10.639712 3.72233,-2.141021 7.10171,-3.029622 12.13915,-3.191968 3.90157,-0.125737 6.25809,0.190625 9.32704,1.252157 5.25056,1.816141 9.36426,5.918231 11.02957,10.998453 l 0.38672,1.17972 2.16387,0.5546 c 1.19013,0.30503 3.4963,0.87215 5.12481,1.26026 l 2.96094,0.70566 -0.99486,0.72529 c -0.54716,0.39891 -1.3383,0.97978 -1.75806,1.29083 -1.19851,0.88809 -2.08932,1.54075 -3.38587,2.48067 -0.66044,0.47878 -1.19978,0.91528 -1.19853,0.97001 0.002,0.0964 0.95403,0.73852 5.24965,3.54155 1.12388,0.73337 2.04726,1.37629 2.05195,1.42871 0.005,0.0524 -0.2433,0.14023 -0.55109,0.19512 -0.30779,0.0549 -2.43995,0.52632 -4.73814,1.0476 -2.29818,0.52129 -4.39676,0.99285 -4.66351,1.04791 l -0.48501,0.10011 1.3e-4,1.59239 c 1.5e-4,1.98201 0.22203,4.38659 0.59795,6.4804 0.64468,3.59069 0.74047,8.97313 0.22823,12.82412 -0.37577,2.82502 -1.43815,6.41998 -3.11565,10.54293 -0.56889,1.39821 -2.22374,4.4683 -3.33922,6.19494 -3.12954,4.84418 -6.62336,8.52254 -11.12805,11.71579 l -1.6095,1.14094 0.328,0.26743 c 0.61582,0.50211 2.25579,1.34583 3.5971,1.85063 2.36231,0.88904 3.0571,0.98359 7.35246,1.00052 3.36239,0.0132 3.94688,0.0497 4.38093,0.27294 0.4866,0.25029 0.60987,0.24084 4.32774,-0.33207 7.25717,-1.11829 14.83079,-2.02279 15.65019,-1.86907 2.38058,0.4466 3.80778,3.14322 2.76621,5.22662 -0.91245,1.82514 -1.37463,2.00431 -6.90405,2.67646 -4.95744,0.60261 -9.7728,1.27212 -12.98324,1.80514 -1.19013,0.1976 -2.86899,0.46321 -3.73081,0.59025 -2.1785,0.32113 -11.44072,2.07399 -13.87863,2.62651 -8.65265,1.96101 -10.34513,2.37945 -15.66942,3.87403 -10.88082,3.05434 -19.63848,6.16055 -29.10036,10.32148 -3.59405,1.5805 -11.4829,5.45053 -14.25171,6.99146 -1.06702,0.59382 -2.24222,1.24468 -2.61157,1.44634 -2.79332,1.52519 -7.52365,4.4438 -11.22281,6.92448 -0.9606,0.64418 -1.81682,1.17124 -1.90272,1.17124 -0.0859,0 -0.15617,0.0565 -0.15617,0.12552 0,0.069 -0.31997,0.29966 -0.71105,0.51251 -0.7732,0.42082 -1.93792,0.60713 -2.64669,0.42337 z m 61.48383,-35.43855 c 1.31325,-0.36681 4.06659,-1.08838 6.11854,-1.60349 2.05195,-0.51512 3.81919,-1.02416 3.9272,-1.13122 0.3743,-0.371 2.1963,-1.37192 3.23596,-1.77769 1.75218,-0.68385 2.31311,-1.25515 2.31311,-2.35586 0,-0.43112 -0.10814,-0.6076 -0.63424,-1.0351 -0.34883,-0.28345 -0.85827,-0.65001 -1.1321,-0.81458 l -0.49786,-0.29921 -1.44216,0.67504 c -1.80793,0.84625 -2.92664,1.26992 -5.09836,1.93083 -3.68529,1.12152 -5.75858,1.39071 -10.71269,1.3909 l -3.17644,1.3e-4 0.17651,0.33577 c 0.32284,0.61412 2.26627,3.6044 3.00046,4.61669 0.67738,0.93398 0.74959,0.98938 1.12901,0.86625 0.22294,-0.0724 1.47982,-0.43166 2.79306,-0.79846 z" fill="#000"/></svg>