<svg xmlns="http://www.w3.org/2000/svg" viewBox="0 0 100 100"><path fill-rule="evenodd" d="M96.0,50.0 L95.0,59.6 L82.9,62.0 L79.7,68.5 L85.2,79.6 L78.3,86.2 L67.5,80.3 L60.8,83.3 L58.0,95.3 L48.4,96.0 L43.9,84.5 L36.9,82.5 L27.0,89.8 L19.2,84.2 L23.2,72.5 L19.1,66.4 L6.8,65.7 L4.4,56.4 L15.0,50.0 L15.8,42.7 L6.8,34.3 L11.0,25.6 L23.2,27.5 L28.5,22.4 L27.0,10.2 L35.8,6.3 L43.9,15.5 L51.2,15.0 L58.0,4.7 L67.2,7.3 L67.5,19.7 L73.4,24.0 L85.2,20.4 L90.6,28.4 L82.9,38.0 L84.7,45.1 L96.0,50.0 Z M64.0,50 A14,14 0 1 0 36.0,50 A14,14 0 1 0 64.0,50 Z" fill="#000"/></svg>
