<?xml version="1.0" encoding="UTF-8" standalone="no"?>
<!-- Created with Inkscape (http://www.inkscape.org/) -->

<svg
   width="210mm"
   height="297mm"
   viewBox="0 0 210 297"
   version="1.1"
   id="svg5"
   xml:space="preserve"
   inkscape:version="1.2.1 (9c6d41e, 2022-07-14)"
   sodipodi:docname="leaf.svg"
   xmlns:inkscape="http://www.inkscape.org/namespaces/inkscape"
   xmlns:sodipodi="http://sodipodi.sourceforge.net/DTD/sodipodi-0.dtd"
   xmlns="http://www.w3.org/2000/svg"
   xmlns:svg="http://www.w3.org/2000/svg"><sodipodi:namedview
     id="namedview7"
     pagecolor="#ffffff"
     bordercolor="#000000"
     borderopacity="0.25"
     inkscape:showpageshadow="2"
     inkscape:pageopacity="0.0"
     inkscape:pagecheckerboard="0"
     inkscape:deskcolor="#d1d1d1"
     inkscape:document-units="mm"
     showgrid="false"
     inkscape:zoom="1.6913199"
     inkscape:cx="408.26103"
     inkscape:cy="562.28276"
     inkscape:window-width="1902"
     inkscape:window-height="1490"
     inkscape:window-x="254"
     inkscape:window-y="30"
     inkscape:window-maximized="0"
     inkscape:current-layer="layer1" /><defs
     id="defs2" /><g
     inkscape:label="Ebene 1"
     inkscape:groupmode="layer"
     id="layer1"><path
       style="fill:#000000;stroke-width:0.264583"
       d="m 61.280674,205.43788 c -0.465034,-0.29105 -1.026322,-0.80513 -1.247302,-1.14238 -1.671277,-2.5507 -0.008,-12.78677 3.308107,-20.3591 l 1.004566,-2.2939 -2.313492,-2.3363 c -4.540106,-4.58487 -6.500957,-8.85638 -7.874145,-17.15298 -0.534566,-3.22976 -0.604361,-10.67457 -0.13005,-13.87191 2.67572,-18.03708 15.065017,-33.00657 37.216267,-44.96692 4.58481,-2.47553 8.996055,-4.52359 15.374095,-7.137916 10.03751,-4.114325 16.42716,-7.935209 21.46675,-12.83669 l 1.66552,-1.619881 0.5025,0.661459 c 0.27638,0.363802 1.27285,2.149739 2.21438,3.968749 9.42922,18.217039 12.66744,39.285649 8.73846,56.854499 -3.11157,13.91373 -12.06959,26.58372 -24.57597,34.7596 -3.24762,2.12308 -9.67635,5.25154 -13.36146,6.50217 -10.873445,3.69016 -23.164975,4.05693 -31.459925,0.93874 -0.93186,-0.3503 -1.73008,-0.60113 -1.77382,-0.55739 -0.23228,0.23228 -2.45864,6.11519 -2.84647,7.52149 -0.77664,2.81613 -1.22514,5.93317 -1.22957,8.54546 -0.002,1.46671 -0.14038,2.7784 -0.33109,3.1495 -0.81894,1.59352 -2.930203,2.26065 -4.347351,1.3737 z"
       id="path236" /></g></svg>
